<svg xmlns="http://www.w3.org/2000/svg" viewBox="0 0 512 512" role="img" aria-labelledby="title">
  <title id="title">Codox logo placeholder</title>
  <rect width="512" height="512" rx="104" fill="#17202a" />
  <rect x="54" y="54" width="404" height="404" rx="78" fill="#f8fafc" />
  <path
    d="M221 341c-58 0-99-37-99-88s41-88 99-88c33 0 60 12 78 33l-39 35c-10-12-23-18-38-18-25 0-43 16-43 38s18 38 43 38c15 0 28-6 38-18l39 35c-18 21-45 33-78 33Z"
    fill="#17202a"
  />
  <path
    d="M306 220h50l25 35 25-35h47l-47 62 50 66h-51l-27-39-28 39h-47l51-66-48-62Z"
    fill="#2454ff"
  />
</svg>
